<?xml version="1.0" encoding="utf-8"?>
<!-- Generator: Adobe Illustrator 16.0.0, SVG Export Plug-In . SVG Version: 6.00 Build 0)  -->
<!DOCTYPE svg PUBLIC "-//W3C//DTD SVG 1.1//EN" "http://www.w3.org/Graphics/SVG/1.1/DTD/svg11.dtd">
<svg version="1.1" id="Capa_1" xmlns="http://www.w3.org/2000/svg" xmlns:xlink="http://www.w3.org/1999/xlink" x="0px" y="0px"
	 width="785.465px" height="791.441px" viewBox="0 0 785.465 791.441" enable-background="new 0 0 785.465 791.441"
	 xml:space="preserve">
<rect x="246.871" y="302.918" fill="#F7F7F7" width="318.826" height="147.825"/>
<g>
	<path fill="#03FF8C" d="M220.39,336.037c-7.344,2.088-14.451,3.132-21.321,3.132c-12.239,0-21.88-3.224-28.923-9.672
		c-7.043-6.448-10.564-15.24-10.564-26.376c0-10.726,3.339-19.15,10.017-25.271c6.677-6.12,15.878-9.181,27.602-9.181
		c7.515,0,15.159,1.023,22.932,3.071v17.379h-9.146l-0.064-1.105l-0.258-4.544c-0.474-6.059-4.725-9.089-12.754-9.089
		c-12.068,0-18.101,9.334-18.101,28.004c0,19.121,8.009,28.679,24.027,28.679c4.938,0,10.457-1.146,16.555-3.439V336.037z"/>
	<path fill="#03FF8C" d="M273.34,329.834c-6.787,6.224-13.872,9.334-21.257,9.334c-6.271,0-11.467-1.852-15.59-5.558
		c-4.122-3.705-6.184-8.383-6.184-14.033c0-14.739,12.391-22.108,37.169-22.108h3.221v-8.168c0-5.772-0.765-9.703-2.287-11.791
		c-1.524-2.088-4.348-3.132-8.471-3.132c-8.59,0-12.883,2.743-12.883,8.229l-0.129,3.869l-0.064,1.167h-10.372v-13.634
		c8.159-3.562,16.685-5.343,25.574-5.343c18.464,0,27.698,6.817,27.698,20.45v29.601c0,5.241,0.396,8.813,1.192,10.716
		c0.794,1.904,2.286,2.856,4.477,2.856c0.645,0,1.394-0.123,2.255-0.369l0.837,5.711c-3.35,1.022-6.594,1.535-9.727,1.535
		C281.843,339.169,276.689,336.058,273.34,329.834z M270.699,325.351v-22.354h-2.513c-12.754,0-19.131,4.852-19.131,14.555
		c0,7.943,3.757,11.914,11.272,11.914C264.15,329.466,267.607,328.094,270.699,325.351z"/>
	<path fill="#03FF8C" d="M331.636,289.425v30.399c0,4.831,0.387,7.953,1.16,9.365c0.772,1.413,2.512,2.202,5.217,2.365l4.381,0.307
		l1.224,0.062v5.711h-41.354v-5.711l1.224-0.062c4.08-0.246,6.56-0.665,7.44-1.259c0.878-0.593,1.32-2.159,1.32-4.698l0.322-6.08
		v-31.812l-0.322-6.08c0-2.539-0.442-4.104-1.32-4.698c-0.881-0.593-3.36-1.013-7.44-1.259l-1.224-0.062v-5.711h29.373v12.712
		c5.798-9.498,13.311-14.248,22.546-14.248c0.987,0,2.231,0.164,3.735,0.491v21.494h-8.76l-0.064-1.105l-0.258-2.886
		c-0.172-2.742-0.442-4.381-0.806-4.913c-0.364-0.531-1.385-0.798-3.06-0.798C339.472,280.95,335.026,283.775,331.636,289.425z"/>
	<path fill="#03FF8C" d="M392.638,240.664v79.16l0.386,6.08c0,2.54,0.44,4.105,1.321,4.698c0.878,0.594,3.358,1.013,7.439,1.259
		l1.224,0.062v5.711h-39.744v-5.711l1.225-0.062c4.079-0.246,6.56-0.665,7.439-1.259c0.879-0.593,1.32-2.159,1.32-4.698l0.322-6.08
		v-61.351l-0.322-6.08c0-2.538-0.441-4.104-1.32-4.698c-0.88-0.593-3.36-1.013-7.439-1.259l-1.225-0.123v-5.65H392.638z"/>
	<path fill="#03FF8C" d="M444.426,339.169c-11.123,0-19.947-3.172-26.475-9.519c-6.527-6.346-9.791-14.923-9.791-25.732
		c0-10.931,3.274-19.539,9.823-25.824c6.549-6.285,15.534-9.427,26.958-9.427c11.337,0,20.29,3.142,26.86,9.427
		c6.57,6.285,9.855,14.853,9.855,25.701c0,11.095-3.285,19.765-9.855,26.008C465.231,336.047,456.106,339.169,444.426,339.169z
		 M444.684,332.721c10.606,0,15.91-9.682,15.91-29.048c0-19.038-5.218-28.557-15.652-28.557c-10.479,0-15.718,9.602-15.718,28.802
		C429.224,323.12,434.377,332.721,444.684,332.721z"/>
	<path fill="#03FF8C" d="M276.561,488.561v-12.713c-5.282,9.498-13.248,14.248-23.897,14.248c-8.16,0-14.656-3.029-19.487-9.09
		c-4.831-6.059-7.246-14.227-7.246-24.502c0-11.219,2.727-20.174,8.181-26.869c5.453-6.693,12.755-10.041,21.902-10.041
		c7.858,0,14.708,2.785,20.548,8.353V409.4l-0.322-6.08c0-2.538-0.429-4.104-1.288-4.697c-0.86-0.594-3.35-1.014-7.472-1.26
		l-1.225-0.123v-5.649h29.438v79.16l0.322,6.08c0,2.539,0.439,4.105,1.32,4.697c0.878,0.594,3.358,1.014,7.439,1.26l1.225,0.061
		v5.713H276.561z M276.561,434.764c-5.067-4.34-9.814-6.51-14.235-6.51c-10.736,0-16.104,8.762-16.104,26.283
		c0,15.887,4.703,23.828,14.107,23.828c5.71,0,11.121-2.947,16.232-8.844V434.764z"/>
	<path fill="#03FF8C" d="M353.988,480.76c-6.787,6.225-13.873,9.336-21.257,9.336c-6.272,0-11.467-1.852-15.589-5.559
		c-4.123-3.705-6.184-8.383-6.184-14.031c0-14.74,12.389-22.109,37.167-22.109h3.221v-8.168c0-5.771-0.764-9.703-2.286-11.791
		c-1.524-2.088-4.349-3.131-8.471-3.131c-8.591,0-12.883,2.742-12.883,8.229l-0.129,3.869l-0.064,1.166h-10.371v-13.633
		c8.157-3.563,16.684-5.343,25.573-5.343c18.464,0,27.698,6.816,27.698,20.451v29.6c0,5.242,0.396,8.813,1.191,10.717
		c0.795,1.904,2.287,2.855,4.478,2.855c0.644,0,1.394-0.123,2.254-0.369l0.838,5.713c-3.35,1.021-6.594,1.535-9.727,1.535
		C362.491,490.096,357.338,486.984,353.988,480.76z M351.347,476.277v-22.354h-2.512c-12.754,0-19.132,4.852-19.132,14.555
		c0,7.943,3.758,11.914,11.273,11.914C344.798,480.393,348.255,479.021,351.347,476.277z"/>
	<path fill="#03FF8C" d="M412.282,433.842c5.841-9.498,13.914-14.248,24.221-14.248c6.355,0,11.326,1.873,14.912,5.619
		c3.585,3.746,5.378,8.957,5.378,15.631v29.906l0.387,6.08c0,2.539,0.43,4.105,1.288,4.697c0.859,0.594,3.35,1.014,7.473,1.26
		l1.224,0.061v5.713H427.42v-5.713l1.159-0.061c4.123-0.246,6.624-0.666,7.505-1.26c0.88-0.592,1.32-2.158,1.32-4.697l0.322-6.08
		v-27.818c0-4.791-0.591-8.035-1.771-9.734s-3.446-2.549-6.796-2.549c-5.755,0-11.38,3.338-16.877,10.01v30.092l0.387,6.08
		c0,2.539,0.44,4.105,1.32,4.697c0.88,0.594,3.36,1.014,7.44,1.26l1.224,0.061v5.713H382.91v-5.713l1.225-0.061
		c4.079-0.246,6.56-0.666,7.439-1.26c0.879-0.592,1.32-2.158,1.32-4.697l0.322-6.08v-31.811l-0.322-6.08
		c0-2.539-0.441-4.104-1.32-4.697c-0.88-0.594-3.36-1.014-7.439-1.26l-1.225-0.061v-5.712h29.372V433.842z"/>
	<path fill="#03FF8C" d="M498.534,421.129v49.621l0.387,6.08c0,2.539,0.44,4.105,1.32,4.697c0.881,0.594,3.36,1.014,7.44,1.26
		l1.224,0.061v5.713h-39.744v-5.713l1.224-0.061c4.08-0.246,6.56-0.666,7.44-1.26c0.88-0.592,1.32-2.158,1.32-4.697l0.322-6.08
		v-31.811l-0.322-6.08c0-2.539-0.44-4.104-1.32-4.697c-0.881-0.594-3.36-1.014-7.44-1.26l-1.224-0.061v-5.712H498.534z
		 M479.468,409.768V391.59h19.066v18.178H479.468z"/>
	<path fill="#03FF8C" d="M577.83,485.92c-8.417,2.783-16.641,4.176-24.671,4.176c-12.024,0-21.548-3.244-28.568-9.734
		c-7.021-6.488-10.532-15.26-10.532-26.314c0-10.277,3.167-18.586,9.501-24.934c6.335-6.346,14.612-9.519,24.832-9.519
		c19.626,0,29.438,11.505,29.438,34.513v1.352h-44.189c0,17.033,8.331,25.547,24.993,25.547c5.669,0,12.067-1.473,19.196-4.422
		V485.92z M534.092,449.748h24.929v-2.15c0-8.146-0.858-13.898-2.576-17.256s-4.682-5.035-8.89-5.035
		C538.579,425.307,534.092,433.453,534.092,449.748z"/>
	<path fill="#03FF8C" d="M615.513,391.59v79.16l0.387,6.08c0,2.539,0.44,4.105,1.32,4.697c0.881,0.594,3.36,1.014,7.44,1.26
		l1.224,0.061v5.713H586.14v-5.713l1.224-0.061c4.08-0.246,6.56-0.666,7.44-1.26c0.88-0.592,1.32-2.158,1.32-4.697l0.322-6.08V409.4
		l-0.322-6.08c0-2.538-0.44-4.104-1.32-4.697c-0.881-0.594-3.36-1.014-7.44-1.26l-1.224-0.123v-5.649H615.513z"/>
</g>
</svg>
